<svg xmlns="http://www.w3.org/2000/svg" width="35" height="35" viewBox="0 0 35 35">
  <defs>
    <style>
      .cls-1 {
        fill: #fff;
        opacity: 0;
      }

      .cls-2 {
        fill: #0b0e11;
      }
    </style>
  </defs>
  <g id="组_3277" data-name="组 3277" transform="translate(-0.483 -0.492)">
    <rect id="矩形_2261" data-name="矩形 2261" class="cls-1" width="35" height="35" transform="translate(0.483 0.492)"/>
    <g id="投票" transform="translate(3.549 3.549)">
      <path id="路径_5399" data-name="路径 5399" class="cls-2" d="M136,684.4h-9.884l-2.862,2.862h10.055a.577.577,0,0,1,.578.578v1.4a.577.577,0,0,1-.578.578H110.377a.577.577,0,0,1-.578-.578v-1.4a.577.577,0,0,1,.578-.578h5.837l-2.862-2.862h-5.666a.585.585,0,0,0-.585.585v7.12a.585.585,0,0,0,.585.586H136a.585.585,0,0,0,.585-.586v-7.12A.585.585,0,0,0,136,684.4Z" transform="translate(-107.1 -663.501)"/>
      <path id="路径_5400" data-name="路径 5400" class="cls-2" d="M177.64,130.6l2.862,2.862.466.465a.589.589,0,0,0,.415.171.6.6,0,0,0,.415-.171l.466-.465,2.862-2.862,10.182-10.182a.582.582,0,0,0,0-.826l-9.721-9.721a.584.584,0,0,0-.415-.171.59.59,0,0,0-.415.171l-13.51,13.51a.582.582,0,0,0,0,.826Zm-.269-7.077.367-.367a.579.579,0,0,1,.822,0l2.807,2.807,5.029-5.029a.579.579,0,0,1,.822,0l.367.367a.584.584,0,0,1,0,.822l-5.037,5.026-.669.673a.84.84,0,0,1-.516.185.818.818,0,0,1-.516-.193l-.669-.666-2.807-2.807A.579.579,0,0,1,177.371,123.523Z" transform="translate(-168.749 -109.7)"/>
    </g>
  </g>
</svg>
