<svg xmlns="http://www.w3.org/2000/svg" xmlns:xlink="http://www.w3.org/1999/xlink" width="48" height="48" viewBox="0 0 48 48">
  <defs>
    <style>
      .cls-1 {
        fill: #fff;
        opacity: 0;
      }

      .cls-2 {
        fill: url(#linear-gradient);
      }
    </style>
    <linearGradient id="linear-gradient" x1="0.088" y1="0.178" x2="0.889" y2="0.882" gradientUnits="objectBoundingBox">
      <stop offset="0" stop-color="#db30ff"/>
      <stop offset="1" stop-color="#4768ff"/>
    </linearGradient>
  </defs>
  <g id="组_2952" data-name="组 2952" transform="translate(18596 8927)">
    <rect id="矩形_2219" data-name="矩形 2219" class="cls-1" width="48" height="48" transform="translate(-18596 -8927)"/>
    <path id="减去_7" data-name="减去 7" class="cls-2" d="M24,48A24,24,0,0,1,7.029,7.029,24,24,0,0,1,40.971,40.971,23.843,23.843,0,0,1,24,48Zm3.893-37.327a1.889,1.889,0,0,0-1.333.612,1.92,1.92,0,0,0-.509,1.351V35.659a1.916,1.916,0,0,0,.648,1.435,1.892,1.892,0,0,0,1.266.479,1.928,1.928,0,0,0,1.412-.618l4.513-4.519a1.919,1.919,0,1,0-2.714-2.714l-1.29,1.29V12.521a1.91,1.91,0,0,0-1.915-1.848ZM17.9,17.228V35.713a1.908,1.908,0,0,0,1.914,1.848.379.379,0,0,0,.079-.006,1.889,1.889,0,0,0,1.333-.612,1.925,1.925,0,0,0,.509-1.351V12.581a1.916,1.916,0,0,0-.648-1.435,1.894,1.894,0,0,0-1.267-.479,1.927,1.927,0,0,0-1.411.618L13.9,15.8a1.919,1.919,0,1,0,2.714,2.714L17.9,17.231Z" transform="translate(-18596 -8927)"/>
  </g>
</svg>
