<svg xmlns="http://www.w3.org/2000/svg" width="24" height="24" viewBox="0 0 24 24">
  <defs>
    <style>
      .cls-1 {
        fill: #fff;
        opacity: 0;
      }

      .cls-2 {
        fill: #636364;
      }
    </style>
  </defs>
  <g id="组_2947" data-name="组 2947" transform="translate(18488 9141)">
    <rect id="矩形_2215" data-name="矩形 2215" class="cls-1" width="24" height="24" transform="translate(-18488 -9141)"/>
    <g id="复制_2" data-name="复制 2" transform="translate(-18546.008 -9137)">
      <path id="减去_1" data-name="减去 1" class="cls-2" d="M9.339,12.675H.967A.968.968,0,0,1,0,11.707V.967A.968.968,0,0,1,.967,0H7.057l3.248,3.22v8.487A.968.968,0,0,1,9.339,12.675ZM2.049,9.049a.493.493,0,0,0,0,.967H7.483a.493.493,0,0,0,0-.967Zm0-2.736a.493.493,0,0,0,0,.967H7.483a.456.456,0,0,0,.1.009.493.493,0,1,0-.1-.976Zm0-2.736a.493.493,0,0,0,0,.967H5.114a.456.456,0,0,0,.1.009.493.493,0,1,0-.1-.976Z" transform="translate(64.009 2.794)"/>
      <path id="路径_5380" data-name="路径 5380" class="cls-2" d="M165.388,0h-8.343a1.489,1.489,0,0,0-1.518,1.489v.1h.967v-.1a.5.5,0,0,1,.551-.522h8.372a.493.493,0,0,1,.493.5V12.21a.493.493,0,0,1-.493.493h-.068v.967h.068a1.489,1.489,0,0,0,1.479-1.479V1.489A1.489,1.489,0,0,0,165.388,0Z" transform="translate(-90.136 0)"/>
    </g>
  </g>
</svg>
