<svg xmlns="http://www.w3.org/2000/svg" width="36" height="35" viewBox="0 0 36 35">
  <defs>
    <style>
      .cls-1, .cls-2 {
        fill: #fff;
      }

      .cls-1 {
        opacity: 0;
      }
    </style>
  </defs>
  <g id="组_3276" data-name="组 3276" transform="translate(0.034 -0.492)">
    <rect id="矩形_2263" data-name="矩形 2263" class="cls-1" width="36" height="35" transform="translate(-0.034 0.492)"/>
    <g id="砖石" transform="translate(2.366 3.549)">
      <path id="路径_5403" data-name="路径 5403" class="cls-2" d="M417.422,17.749l3.207,5.185h-10l3.31-5.185h3.488" transform="translate(-400.109 -17.749)"/>
      <path id="路径_5404" data-name="路径 5404" class="cls-2" d="M715.322,22.934H707.69L702.8,17.749h5.354l6.526,2.963a1.851,1.851,0,0,1,.638,2.222" transform="translate(-684.264 -17.749)"/>
      <path id="路径_5405" data-name="路径 5405" class="cls-2" d="M680.887,267.605a6.6,6.6,0,0,1-1.247,2.185l.009.009-12,15.9,5.879-18.1h7.36" transform="translate(-650.073 -260.742)"/>
      <path id="路径_5406" data-name="路径 5406" class="cls-2" d="M40.5,17.749l-4.885,5.185H27.981a1.872,1.872,0,0,1,.656-2.25l-.019.028,6.526-2.963H40.5" transform="translate(-27.836 -17.749)"/>
      <path id="路径_5407" data-name="路径 5407" class="cls-2" d="M49.686,267.605l5.888,18.1L43.563,269.8c.009,0,.009,0,.009-.009a6.774,6.774,0,0,1-1.247-2.185h7.36" transform="translate(-41.927 -260.742)"/>
      <path id="路径_5408" data-name="路径 5408" class="cls-2" d="M420.628,267.605l-4.876,20.656-5.129-20.656h10" transform="translate(-400.109 -260.742)"/>
    </g>
  </g>
</svg>
