<svg xmlns="http://www.w3.org/2000/svg" width="40" height="41" viewBox="0 0 40 41">
  <defs>
    <style>
      .cls-1 {
        fill: #36ac4a;
        opacity: 0;
      }

      .cls-2 {
        fill: #fff;
      }
    </style>
  </defs>
  <g id="组_2957" data-name="组 2957" transform="translate(-773 -1286)">
    <rect id="矩形_798" data-name="矩形 798" class="cls-1" width="40" height="41" transform="translate(773 1286)"/>
    <g id="互联网_IT" data-name="互联网 IT" transform="translate(780 1293)">
      <path id="路径_5384" data-name="路径 5384" class="cls-2" d="M231.78,26.775c-4.217,0-7.524-5.877-7.524-13.387S227.563,0,231.78,0s7.537,5.877,7.537,13.387S236,26.775,231.78,26.775Zm0-25.1c-3.173,0-5.85,5.368-5.85,11.714S228.607,25.1,231.78,25.1s5.864-5.368,5.864-11.714S234.953,1.673,231.78,1.673Z" transform="translate(-218.392)"/>
      <path id="路径_5385" data-name="路径 5385" class="cls-2" d="M99.149,26.775a13.332,13.332,0,0,1-10.295-4.833l-.6-.723.8-.509a19.276,19.276,0,0,1,10.094-2.544,19.208,19.208,0,0,1,10.094,2.544l.8.509-.6.723A13.332,13.332,0,0,1,99.149,26.775Zm-8.327-5.154a11.7,11.7,0,0,0,16.654,0,20.362,20.362,0,0,0-16.654,0ZM99.149,9.037a18.931,18.931,0,0,1-10.335-2.7l-.75-.509.549-.71a13.4,13.4,0,0,1,21.058,0l.549.71-.75.509A18.851,18.851,0,0,1,99.149,9.037Zm-8.595-3.6a18.2,18.2,0,0,0,8.595,1.928,18.2,18.2,0,0,0,8.595-1.928,11.7,11.7,0,0,0-17.189,0Z" transform="translate(-85.761)"/>
      <path id="路径_5386" data-name="路径 5386" class="cls-2" d="M3.561,190.052l-.469-.562A13.461,13.461,0,0,1,0,180.921a13.268,13.268,0,0,1,2.865-8.273l.482-.616.643.442a17.2,17.2,0,0,0,9.4,2.423,17.318,17.318,0,0,0,9.4-2.41l.643-.442.482.616a13.2,13.2,0,0,1,2.865,8.26,13.4,13.4,0,0,1-3.092,8.555l-.469.562-.616-.4a17.608,17.608,0,0,0-9.2-2.276,17.608,17.608,0,0,0-9.2,2.276l-.643.415Zm9.826-4.351a19.9,19.9,0,0,1,9.438,2.155,11.69,11.69,0,0,0,2.276-6.935,11.554,11.554,0,0,0-2.062-6.627,19.637,19.637,0,0,1-9.652,2.276,19.637,19.637,0,0,1-9.652-2.276,11.554,11.554,0,0,0-2.062,6.627,11.75,11.75,0,0,0,2.276,6.935A19.9,19.9,0,0,1,13.387,185.7Z" transform="translate(0 -167.534)"/>
      <path id="路径_5387" data-name="路径 5387" class="cls-2" d="M479.744,31.744h1.673v25.1h-1.673Z" transform="translate(-467.2 -30.914)"/>
      <path id="路径_5388" data-name="路径 5388" class="cls-2" d="M32.256,479.744h25.1v1.673h-25.1Z" transform="translate(-31.413 -467.2)"/>
    </g>
  </g>
</svg>
