<svg xmlns="http://www.w3.org/2000/svg" width="24" height="24" viewBox="0 0 24 24">
  <defs>
    <style>
      .cls-1 {
        fill: #fff;
        opacity: 0;
      }

      .cls-2 {
        fill: #636364;
      }
    </style>
  </defs>
  <g id="组_2950" data-name="组 2950" transform="translate(18767 8956)">
    <rect id="矩形_2218" data-name="矩形 2218" class="cls-1" width="24" height="24" transform="translate(-18767 -8956)"/>
    <path id="减去_8" data-name="减去 8" class="cls-2" d="M8.055,16.11A8.055,8.055,0,1,1,16.11,8.055,8.064,8.064,0,0,1,8.055,16.11Zm1.221-5.974a.324.324,0,0,0-.324.324v1.3a.324.324,0,0,0,.325.325.325.325,0,0,0,.324-.325v-1.3a.323.323,0,0,0-.1-.228.33.33,0,0,0-.229-.1ZM6.411,7.244a.32.32,0,0,0-.229.1L4.565,8.955a1.834,1.834,0,1,0,2.593,2.594L8.776,9.934a.324.324,0,0,0,.1-.232.32.32,0,0,0-.1-.228.327.327,0,0,0-.461,0L6.7,11.09A1.183,1.183,0,1,1,5.025,9.417L6.642,7.8a.324.324,0,0,0,.1-.232.32.32,0,0,0-.1-.228A.324.324,0,0,0,6.411,7.244ZM10.5,10.168h0a.327.327,0,0,0-.23.094.319.319,0,0,0-.1.228.324.324,0,0,0,.1.232l.922.922a.323.323,0,0,0,.229.1.327.327,0,0,0,.23-.1.319.319,0,0,0,.1-.228.324.324,0,0,0-.1-.232l-.922-.922A.323.323,0,0,0,10.5,10.168Zm-.049-1.22a.325.325,0,0,0,0,.651h1.3a.325.325,0,0,0,.324-.324.322.322,0,0,0-.324-.325Zm-.2-4.268a1.182,1.182,0,0,1,.837,2.02L9.471,8.317a.324.324,0,0,0-.1.232.32.32,0,0,0,.1.228.328.328,0,0,0,.46,0l1.618-1.617a1.835,1.835,0,0,0-2.6-2.593L7.336,6.184a.324.324,0,0,0-.1.232.32.32,0,0,0,.1.228.324.324,0,0,0,.23.1.319.319,0,0,0,.229-.1L9.413,5.027A1.175,1.175,0,0,1,10.25,4.681ZM4.355,6.519a.324.324,0,0,0-.324.324.316.316,0,0,0,.092.228.324.324,0,0,0,.233.1h1.3a.326.326,0,0,0,.231-.555.324.324,0,0,0-.231-.1h-1.3Zm2.48-2.492a.324.324,0,0,0-.323.325v1.3a.316.316,0,0,0,.1.229.324.324,0,0,0,.554-.23v-1.3a.324.324,0,0,0-.324-.325Zm-2.141.351a.324.324,0,0,0-.23.1.319.319,0,0,0-.1.228.324.324,0,0,0,.1.232l.922.922a.329.329,0,0,0,.46,0,.319.319,0,0,0,.1-.228.324.324,0,0,0-.1-.232l-.922-.921A.319.319,0,0,0,4.694,4.378Z" transform="translate(-18763 -8952)"/>
  </g>
</svg>
