<svg xmlns="http://www.w3.org/2000/svg" width="24" height="24" viewBox="0 0 24 24">
  <defs>
    <style>
      .cls-1 {
        fill: #fff;
        opacity: 0;
      }

      .cls-2 {
        fill: #636364;
      }
    </style>
  </defs>
  <g id="组_2949" data-name="组 2949" transform="translate(18594 8965)">
    <rect id="矩形_2217" data-name="矩形 2217" class="cls-1" width="24" height="24" transform="translate(-18594 -8965)"/>
    <path id="编辑" class="cls-2" d="M72.422,64.522a8.054,8.054,0,1,0,8.054,8.054A8.054,8.054,0,0,0,72.422,64.522Zm4.6,12.173a.544.544,0,0,1-.549.457H68.246a.457.457,0,0,1-.457-.457h0V68.458A.457.457,0,0,1,68.246,68h6.925c.248,0,.46.3.468.552a.525.525,0,0,1-.456.546H69.237a.258.258,0,0,0-.258.258v6.429a.249.249,0,0,0,.249.249h6.353a.274.274,0,0,0,.274-.274V73.029c0-.252.352-.457.6-.457s.567.2.567.457ZM72.8,74.529a.522.522,0,0,1-.738,0l-.087-.087a.522.522,0,0,1,0-.738l5.146-5.146a.522.522,0,0,1,.738,0l.087.087a.522.522,0,0,1,0,.738Z" transform="translate(-18654.367 -9025.522)"/>
  </g>
</svg>
