<svg xmlns="http://www.w3.org/2000/svg" width="42" height="42" viewBox="0 0 42 42">
  <defs>
    <style>
      .cls-1 {
        fill: #fff;
        opacity: 0;
      }

      .cls-2 {
        fill: #0b0e11;
      }
    </style>
  </defs>
  <g id="组_3024" data-name="组 3024" transform="translate(17861 9927)">
    <rect id="矩形_2228" data-name="矩形 2228" class="cls-1" width="42" height="42" transform="translate(-17861 -9927)"/>
    <path id="设置_1_" data-name="设置 (1)" class="cls-2" d="M56.955,185.366a4.236,4.236,0,0,1,4.15,3.387H72.763a.847.847,0,0,1,.014,1.694H61.1a4.235,4.235,0,0,1-8.3,0H50.18a.847.847,0,0,1-.014-1.694h2.639a4.236,4.236,0,0,1,4.15-3.387Zm0,1.694A2.541,2.541,0,1,0,59.5,189.6,2.541,2.541,0,0,0,56.955,187.06Zm9.033-10.727a4.236,4.236,0,0,1,4.15,3.387h2.625a.847.847,0,0,1,.014,1.694H70.137a4.235,4.235,0,0,1-8.3,0H50.18a.847.847,0,0,1-.014-1.694H61.838A4.236,4.236,0,0,1,65.988,176.333Zm0,1.694a2.541,2.541,0,1,0,2.541,2.541A2.541,2.541,0,0,0,65.988,178.027Z" transform="translate(-17901.334 -10091.333)"/>
  </g>
</svg>
