<svg xmlns="http://www.w3.org/2000/svg" width="48" height="48" viewBox="0 0 48 48">
  <defs>
    <style>
      .cls-1 {
        fill: #fff;
        opacity: 0;
      }

      .cls-2 {
        fill: none;
      }

      .cls-3 {
        fill: #636364;
      }

      .cls-4, .cls-5 {
        stroke: none;
      }

      .cls-5 {
        fill: #ddd;
      }
    </style>
  </defs>
  <g id="组_3900" data-name="组 3900" transform="translate(-269 -4142)">
    <rect id="矩形_2082" data-name="矩形 2082" class="cls-1" width="48" height="48" transform="translate(269 4142)"/>
    <g id="路径_5457" data-name="路径 5457" class="cls-2" transform="translate(269 4142)">
      <path class="cls-4" d="M24,0A24,24,0,1,1,0,24,24,24,0,0,1,24,0Z"/>
      <path class="cls-5" d="M 24 2 C 21.02914047241211 2 18.1481990814209 2.581401824951172 15.43722152709961 3.728050231933594 C 12.81771850585938 4.836009979248047 10.46474075317383 6.422561645507813 8.443649291992188 8.443649291992188 C 6.422561645507813 10.46474075317383 4.836009979248047 12.81771850585938 3.728050231933594 15.43722152709961 C 2.581401824951172 18.1481990814209 2 21.02914047241211 2 24 C 2 26.97085952758789 2.581401824951172 29.8518009185791 3.728050231933594 32.56278228759766 C 4.836009979248047 35.18228149414063 6.422561645507813 37.53525924682617 8.443649291992188 39.55635070800781 C 10.46474075317383 41.57743835449219 12.81771850585938 43.16399002075195 15.43722152709961 44.27194976806641 C 18.1481990814209 45.41860198974609 21.02914047241211 46 24 46 C 26.97085952758789 46 29.8518009185791 45.41860198974609 32.56278228759766 44.27194976806641 C 35.18228149414063 43.16399002075195 37.53525924682617 41.57743835449219 39.55635070800781 39.55635070800781 C 41.57743835449219 37.53525924682617 43.16399002075195 35.18228149414063 44.27194976806641 32.56278228759766 C 45.41860198974609 29.8518009185791 46 26.97085952758789 46 24 C 46 21.02914047241211 45.41860198974609 18.1481990814209 44.27194976806641 15.43722152709961 C 43.16399002075195 12.81771850585938 41.57743835449219 10.46474075317383 39.55635070800781 8.443649291992188 C 37.53525924682617 6.422561645507813 35.18228149414063 4.836009979248047 32.56278228759766 3.728050231933594 C 29.8518009185791 2.581401824951172 26.97085952758789 2 24 2 M 24 0 C 37.25482940673828 0 48 10.74517059326172 48 24 C 48 37.25482940673828 37.25482940673828 48 24 48 C 10.74517059326172 48 0 37.25482940673828 0 24 C 0 10.74517059326172 10.74517059326172 0 24 0 Z"/>
    </g>
    <path id="纸飞机" class="cls-3" d="M30.521.172,2.51,10.951C.6,11.719.617,12.787,2.162,13.223L9.31,15.495,25.977,5.017c.788-.472,1.509-.207.913.337L13.4,17.456l-.462,7.4a1.867,1.867,0,0,0,1.458-.731l3.465-3.372L25.126,26.1c1.338.737,2.3.348,2.635-1.245L32.544,2.449C33.032.488,31.807-.4,30.521.172Z" transform="translate(275.963 4153.001)"/>
  </g>
</svg>
