<svg id="组_2485" data-name="组 2485" xmlns="http://www.w3.org/2000/svg" width="48" height="48" viewBox="0 0 48 48">
  <defs>
    <style>
      .cls-1 {
        fill: none;
      }

      .cls-2 {
        fill: #636364;
      }

      .cls-3, .cls-4 {
        stroke: none;
      }

      .cls-4 {
        fill: #c9c9c9;
      }
    </style>
  </defs>
  <g id="路径_5275" data-name="路径 5275" class="cls-1" transform="translate(0)">
    <path class="cls-3" d="M0,0H48V48H0Z"/>
    <path class="cls-4" d="M 2 2 L 2 46 L 46 46 L 46 2 L 2 2 M 0 0 L 48 0 L 48 48 L 0 48 L 0 0 Z"/>
  </g>
  <path id="纸飞机" class="cls-2" d="M30.521.172,2.51,10.951C.6,11.719.617,12.787,2.162,13.223L9.31,15.495,25.977,5.017c.788-.472,1.509-.207.913.337L13.4,17.456l-.462,7.4a1.867,1.867,0,0,0,1.458-.731l3.465-3.372L25.126,26.1c1.338.737,2.3.348,2.635-1.245L32.544,2.449C33.032.488,31.807-.4,30.521.172Z" transform="translate(7.31 10.435)"/>
</svg>
