<svg xmlns="http://www.w3.org/2000/svg" xmlns:xlink="http://www.w3.org/1999/xlink" width="78" height="78" viewBox="0 0 78 78">
  <defs>
    <style>
      .cls-1, .cls-3 {
        fill: #fff;
      }

      .cls-1 {
        opacity: 0;
      }

      .cls-2 {
        fill: url(#linear-gradient);
      }

      .cls-4 {
        filter: url(#椭圆_46);
      }
    </style>
    <linearGradient id="linear-gradient" x1="0.11" y1="0.223" x2="0.855" y2="0.833" gradientUnits="objectBoundingBox">
      <stop offset="0" stop-color="#db30ff"/>
      <stop offset="1" stop-color="#4768ff"/>
    </linearGradient>
    <filter id="椭圆_46" x="0" y="0" width="78" height="78" filterUnits="userSpaceOnUse">
      <feOffset dy="3" input="SourceAlpha"/>
      <feGaussianBlur stdDeviation="3" result="blur"/>
      <feFlood flood-opacity="0.161"/>
      <feComposite operator="in" in2="blur"/>
      <feComposite in="SourceGraphic"/>
    </filter>
  </defs>
  <g id="组_3913" data-name="组 3913" transform="translate(-97 -3890)">
    <rect id="矩形_2493" data-name="矩形 2493" class="cls-1" width="60" height="60" transform="translate(106 3896)"/>
    <g id="组_3904" data-name="组 3904" transform="translate(13206 -16147)">
      <g class="cls-4" transform="matrix(1, 0, 0, 1, -13109, 20037)">
        <circle id="椭圆_46-2" data-name="椭圆 46" class="cls-2" cx="30" cy="30" r="30" transform="translate(9 6)"/>
      </g>
      <path id="纸飞机" class="cls-3" d="M32.842.186,2.626,11.813c-2.059.828-2.042,1.981-.375,2.451l7.711,2.451L27.94,5.412c.851-.509,1.628-.224.985.364L14.377,18.83l-.5,7.979a2.014,2.014,0,0,0,1.572-.789l3.738-3.637,7.834,5.775c1.444.795,2.484.375,2.843-1.343L35.024,2.642C35.55.527,34.23-.436,32.842.185Z" transform="translate(-13088.038 20059)"/>
    </g>
  </g>
</svg>
