<svg xmlns="http://www.w3.org/2000/svg" width="35" height="35" viewBox="0 0 35 35">
  <defs>
    <style>
      .cls-1, .cls-2 {
        fill: #fff;
      }

      .cls-1 {
        opacity: 0;
      }
    </style>
  </defs>
  <g id="组_3272" data-name="组 3272" transform="translate(0 -0.492)">
    <rect id="矩形_2258" data-name="矩形 2258" class="cls-1" width="35" height="35" transform="translate(0 0.492)"/>
    <g id="组_3264" data-name="组 3264" transform="translate(3.549 2.366)">
      <path id="路径_5395" data-name="路径 5395" class="cls-2" d="M512.2,503.019h-10.91a1.564,1.564,0,0,0-1.56,1.556v10.884a1.564,1.564,0,0,0,1.56,1.556H512.2a1.564,1.564,0,0,0,1.56-1.556V504.575A1.564,1.564,0,0,0,512.2,503.019Zm-4.679,7.772v2.332a.78.78,0,0,1-1.56,0v-2.332h-2.342a.778.778,0,0,1,0-1.556h2.342V506.9a.78.78,0,0,1,1.56,0v2.332h2.342a.778.778,0,1,1,0,1.556h-2.342Z" transform="translate(-484.227 -487.343)"/>
      <path id="路径_5396" data-name="路径 5396" class="cls-2" d="M499.727,0m1.961,0H511.8a1.734,1.734,0,0,1,1.961,1.961V12.035A1.734,1.734,0,0,1,511.8,14H501.688a1.734,1.734,0,0,1-1.961-1.961V1.961A1.734,1.734,0,0,1,501.688,0Z" transform="translate(-484.227 0)"/>
      <path id="路径_5397" data-name="路径 5397" class="cls-2" d="M14.422,517.015H4.314a1.961,1.961,0,0,1-1.961-1.961V504.98a1.961,1.961,0,0,1,1.961-1.961H14.422a1.961,1.961,0,0,1,1.961,1.961v10.074A1.961,1.961,0,0,1,14.422,517.015Zm0-1.868a.093.093,0,0,0,.093-.093V504.98a.093.093,0,0,0-.093-.093H4.314a.093.093,0,0,0-.093.093v10.074a.093.093,0,0,0,.093.093Z" transform="translate(-2.353 -487.343)"/>
      <path id="路径_5398" data-name="路径 5398" class="cls-2" d="M16.388,14m-1.961,0H4.319a1.734,1.734,0,0,1-1.961-1.961V1.961A1.734,1.734,0,0,1,4.319,0H14.427a1.734,1.734,0,0,1,1.961,1.961V12.035A1.734,1.734,0,0,1,14.427,14Z" transform="translate(-2.357 0)"/>
    </g>
  </g>
</svg>
