<svg xmlns="http://www.w3.org/2000/svg" width="30" height="30" viewBox="0 0 30 30">
  <defs>
    <style>
      .cls-1 {
        fill: #fff;
        opacity: 0;
      }

      .cls-2 {
        fill: #d81e06;
      }
    </style>
  </defs>
  <g id="组_2970" data-name="组 2970" transform="translate(18410 8832)">
    <rect id="矩形_2221" data-name="矩形 2221" class="cls-1" width="30" height="30" transform="translate(-18410 -8832)"/>
    <path id="火" class="cls-2" d="M170.591,91.458s-11.869-2.678-6.564-15.972c0,0,1.2,1.477,1.039,2.188a13.989,13.989,0,0,1,2.982-5.36c1.75-1.722,3.527-6.564,1.888-8.314a12.034,12.034,0,0,1,9.025,10.5s1.039-2.789,3.172-3.065a6.132,6.132,0,0,0,0,3.831s6.727,11.814-4.866,15.807c0,0,3.475-4.048-3.9-11a38.1,38.1,0,0,1-2.776,5.032S167.692,88.449,170.591,91.458Z" transform="translate(-18567.662 -8895)"/>
  </g>
</svg>
