<svg xmlns="http://www.w3.org/2000/svg" width="30" height="30" viewBox="0 0 30 30">
  <defs>
    <style>
      .cls-1 {
        fill: #fff;
        stroke: #707070;
        opacity: 0;
      }

      .cls-2 {
        fill: #f8d12e;
      }

      .cls-3 {
        stroke: none;
      }

      .cls-4 {
        fill: none;
      }
    </style>
  </defs>
  <g id="组_2989" data-name="组 2989" transform="translate(18989 8679)">
    <g id="矩形_2226" data-name="矩形 2226" class="cls-1" transform="translate(-18989 -8679)">
      <rect class="cls-3" width="30" height="30"/>
      <rect class="cls-4" x="0.5" y="0.5" width="29" height="29"/>
    </g>
    <path id="雪花" class="cls-2" d="M118.471,78.724a.885.885,0,0,0-1.1-.586l-3.239.99L108.9,76.347l5.218-2.807,3.244.975a.882.882,0,1,0,.508-1.69l-1.554-.467,1.232-.663a.882.882,0,1,0-.836-1.554l-1.232.663.467-1.554a.882.882,0,1,0-1.69-.508l-.975,3.244-5.37,2.889v-6.1l2.4-2.4a.882.882,0,0,0-1.248-1.248l-1.148,1.148v-1.4a.882.882,0,0,0-1.764,0v1.4L105,65.134a.882.882,0,0,0-1.248,1.248l2.4,2.4v6.106l-5.391-2.867-.99-3.239a.882.882,0,1,0-1.687.516l.474,1.552-1.235-.657a.882.882,0,1,0-.828,1.558l1.235.657-1.552.474a.882.882,0,1,0,.516,1.687l3.239-.99,5.231,2.782-5.218,2.807-3.244-.975a.882.882,0,0,0-.508,1.69l1.554.467-1.232.663a.882.882,0,1,0,.836,1.554l1.232-.663-.467,1.554a.882.882,0,0,0,1.69.508l.975-3.244,5.37-2.889v6.1l-2.4,2.4A.882.882,0,0,0,105,87.569l1.148-1.148v1.4a.882.882,0,0,0,1.764,0v-1.4l1.148,1.148a.882.882,0,0,0,1.248-1.248l-2.4-2.4V77.819l5.391,2.867.99,3.239a.882.882,0,1,0,1.687-.516l-.474-1.552,1.235.657a.882.882,0,1,0,.828-1.558l-1.235-.657,1.552-.474A.885.885,0,0,0,118.471,78.724Z" transform="translate(-19080.547 -8740)"/>
  </g>
</svg>
