<svg xmlns="http://www.w3.org/2000/svg" width="36" height="35" viewBox="0 0 36 35">
  <defs>
    <style>
      .cls-1, .cls-2 {
        fill: #fff;
      }

      .cls-1 {
        opacity: 0;
      }
    </style>
  </defs>
  <g id="组_3275" data-name="组 3275" transform="translate(0.166 -0.492)">
    <rect id="矩形_2259" data-name="矩形 2259" class="cls-1" width="36" height="35" transform="translate(-0.166 0.492)"/>
    <path id="加入" class="cls-2" d="M23.885,186.146a11.171,11.171,0,0,1-5.58-1.483,11.233,11.233,0,1,1,0-19.5,11.232,11.232,0,1,1,5.58,20.983ZM3.6,174.913a9.128,9.128,0,0,0,11.828,8.716c-2.2-1.549-3.709-4.808-3.709-8.578,0-3.927,1.642-7.3,3.987-8.762A9.126,9.126,0,0,0,3.6,174.913Zm20.281-9.125a9.1,9.1,0,0,0-2.962.493c2.352,1.459,4,4.836,4,8.77,0,3.775-1.517,7.038-3.718,8.585a9.125,9.125,0,1,0,2.681-17.847Z" transform="translate(-0.314 -156.581)"/>
  </g>
</svg>
