<svg xmlns="http://www.w3.org/2000/svg" width="24" height="24" viewBox="0 0 24 24">
  <defs>
    <style>
      .cls-1 {
        fill: #fff;
        opacity: 0;
      }

      .cls-2 {
        fill: #636364;
      }
    </style>
  </defs>
  <g id="组_2948" data-name="组 2948" transform="translate(18576 9115)">
    <rect id="矩形_2216" data-name="矩形 2216" class="cls-1" width="24" height="24" transform="translate(-18576 -9115)"/>
    <path id="物品" class="cls-2" d="M75.885,62.58v9.142a1.236,1.236,0,0,1-.141.6,1.877,1.877,0,0,1-.312.43,1.535,1.535,0,0,1-.507.352,1.421,1.421,0,0,1-.523.1H61.151a1.324,1.324,0,0,1-.984-.422,1.421,1.421,0,0,1-.391-.953V62.58L61.261,58a1.887,1.887,0,0,1,.359-.4,1.721,1.721,0,0,1,1.125-.4H72.916a1.956,1.956,0,0,1,.664.2,1.45,1.45,0,0,1,.821,1.055ZM73.948,61.44l-.922-2.75h-10.5l-.813,2.75Zm-3.055,6.884a1.278,1.278,0,0,0,0-1.657,1.181,1.181,0,0,0-.835-.32H65.495a1.182,1.182,0,0,0-.835.32,1.135,1.135,0,0,0,.835,1.962h4.562A1.134,1.134,0,0,0,70.893,68.323Z" transform="translate(-18631.775 -9168.2)"/>
  </g>
</svg>
