<svg xmlns="http://www.w3.org/2000/svg" width="48" height="48" viewBox="0 0 48 48">
  <defs>
    <style>
      .cls-1 {
        fill: #fff;
        opacity: 0;
      }

      .cls-2 {
        fill: #12161c;
      }
    </style>
  </defs>
  <g id="组_2482" data-name="组 2482" transform="translate(13603 13456)">
    <path id="路径_5359" data-name="路径 5359" class="cls-1" d="M0,0H48V48H0Z" transform="translate(-13603 -13456)"/>
    <path id="分享_1_" data-name="分享 (1)" class="cls-2" d="M87.031,65.536h.02A1.232,1.232,0,0,1,87.031,68h0a10.84,10.84,0,1,0,10.84,10.84v-.082h0a1.232,1.232,0,1,1,2.464,0c0,.007,0,.014,0,.02v-.02q0,.041,0,.082a13.3,13.3,0,1,1-13.325-13.3Zm7.921,3.807.02.021,2.255,2.389a1.23,1.23,0,0,1,.336.851v.016c0,.007,0,.014,0,.02a1.229,1.229,0,0,1-.422.928l-2.028,2.658a1.232,1.232,0,0,1-1.976-1.471l.017-.023.656-.86H91.137a3.7,3.7,0,0,0-3.695,3.634v3.927a1.232,1.232,0,0,1-2.463.026V77.567a6.159,6.159,0,0,1,6.057-6.158h2.478l-.333-.352a1.232,1.232,0,0,1,.029-1.721l.021-.021a1.232,1.232,0,0,1,1.721.029Z" transform="translate(-13665.728 -13510.536)"/>
  </g>
</svg>
