<svg xmlns="http://www.w3.org/2000/svg" xmlns:xlink="http://www.w3.org/1999/xlink" width="48" height="48" viewBox="0 0 48 48">
  <defs>
    <style>
      .cls-1, .cls-3 {
        fill: #fff;
      }

      .cls-1 {
        opacity: 0;
      }

      .cls-2 {
        fill: url(#linear-gradient);
      }
    </style>
    <linearGradient id="linear-gradient" y1="0.267" x2="1" y2="0.845" gradientUnits="objectBoundingBox">
      <stop offset="0" stop-color="#db30ff"/>
      <stop offset="1" stop-color="#1c7ff8"/>
    </linearGradient>
  </defs>
  <g id="组_3903" data-name="组 3903" transform="translate(-174 -3723)">
    <path id="路径_5359" data-name="路径 5359" class="cls-1" d="M0,0H48V48H0Z" transform="translate(174 3723)"/>
    <g id="组_3902" data-name="组 3902" transform="translate(-1564 3709)">
      <ellipse id="椭圆_35" data-name="椭圆 35" class="cls-2" cx="18.5" cy="18" rx="18.5" ry="18" transform="translate(1744 20)"/>
      <path id="分享_1_" data-name="分享 (1)" class="cls-3" d="M84.683,65.536H84.7a1.014,1.014,0,0,1-.017,2.029h0a8.926,8.926,0,1,0,8.926,8.926v-.068h0a1.014,1.014,0,1,1,2.029,0c0,.006,0,.011,0,.017v-.017q0,.034,0,.068A10.955,10.955,0,1,1,84.666,65.536Zm6.523,3.135.017.017,1.857,1.967a1.013,1.013,0,0,1,.277.7v.013c0,.006,0,.011,0,.017a1.012,1.012,0,0,1-.347.764l-1.67,2.189a1.014,1.014,0,0,1-1.627-1.212l.014-.019.54-.708h-2.2a3.043,3.043,0,0,0-3.043,2.993v3.234a1.014,1.014,0,0,1-2.028.021v-3.2a5.072,5.072,0,0,1,4.988-5.071h2.041l-.274-.29a1.014,1.014,0,0,1,.024-1.417l.017-.017a1.014,1.014,0,0,1,1.417.024Z" transform="translate(1678.272 -38.536)"/>
    </g>
  </g>
</svg>
