<svg xmlns="http://www.w3.org/2000/svg" width="60" height="60" viewBox="0 0 60 60">
  <defs>
    <style>
      .cls-1, .cls-2 {
        fill: #fff;
      }

      .cls-1 {
        opacity: 0;
      }
    </style>
  </defs>
  <g id="组_2983" data-name="组 2983" transform="translate(18887 8536)">
    <rect id="矩形_2222" data-name="矩形 2222" class="cls-1" width="60" height="60" transform="translate(-18887 -8536)"/>
    <path id="更多" class="cls-2" d="M94,64a30,30,0,1,0,30,30A30,30,0,0,0,94,64Zm12.857,26.25a3.75,3.75,0,1,1-3.75,3.75A3.75,3.75,0,0,1,106.857,90.25ZM94,90.25A3.75,3.75,0,1,1,90.25,94,3.75,3.75,0,0,1,94,90.25Zm-12.857,0A3.75,3.75,0,1,1,77.393,94,3.75,3.75,0,0,1,81.143,90.25Z" transform="translate(-18951 -8600)"/>
  </g>
</svg>
