<svg xmlns="http://www.w3.org/2000/svg" width="36" height="35" viewBox="0 0 36 35">
  <defs>
    <style>
      .cls-1, .cls-2, .cls-3 {
        fill: #fff;
      }

      .cls-1 {
        opacity: 0;
      }

      .cls-3 {
        opacity: 0.2;
      }
    </style>
  </defs>
  <g id="组_3274" data-name="组 3274" transform="translate(0.2 -0.492)">
    <rect id="矩形_2262" data-name="矩形 2262" class="cls-1" width="36" height="35" transform="translate(-0.2 0.492)"/>
    <g id="空投" transform="translate(3.549 3.549)">
      <path id="路径_5409" data-name="路径 5409" class="cls-2" d="M181.2,400.035a.827.827,0,0,0-1,.206l-10.674,14.586,3.986-13.541a.6.6,0,0,0-.537-.721.749.749,0,0,0-.881.441l-4.4,14.933-4.4-14.933a.749.749,0,0,0-.88-.441.6.6,0,0,0-.539.721l3.986,13.541-10.675-14.586a.826.826,0,0,0-1-.206.541.541,0,0,0-.25.821L166.411,417.9h2.561l12.473-17.044a.542.542,0,0,0-.25-.821Z" transform="translate(-153.834 -389.187)"/>
      <path id="路径_5410" data-name="路径 5410" class="cls-2" d="M177.483,75.606a16.281,16.281,0,0,0-19.591,0,10.25,10.25,0,0,0-4.062,7.988v.1a.622.622,0,0,0,.492.565.832.832,0,0,0,.811-.2,3.179,3.179,0,0,1,2.724-1.279,4.824,4.824,0,0,1,4.078,1.782.809.809,0,0,0,1.3,0c.558-.885,2.268-1.782,4.457-1.782s3.9.9,4.458,1.782a.81.81,0,0,0,1.3,0,4.823,4.823,0,0,1,4.078-1.782,3.18,3.18,0,0,1,2.723,1.279.832.832,0,0,0,.811.2.621.621,0,0,0,.49-.565v-.1A10.249,10.249,0,0,0,177.483,75.606Z" transform="translate(-153.83 -72.33)"/>
      <path id="路径_5411" data-name="路径 5411" class="cls-3" d="M177.483,75.606a16.281,16.281,0,0,0-19.591,0,10.25,10.25,0,0,0-4.062,7.988v.1a.5.5,0,0,0,.044.2,10.4,10.4,0,0,1,4.019-7.089,16.281,16.281,0,0,1,19.591,0,10.407,10.407,0,0,1,4.019,7.089.5.5,0,0,0,.043-.2v-.1A10.252,10.252,0,0,0,177.483,75.606Z" transform="translate(-153.83 -72.33)"/>
      <path id="路径_5412" data-name="路径 5412" class="cls-2" d="M415.224,727.59H409.39a.674.674,0,0,0-.73.6v5.98a.674.674,0,0,0,.73.6h5.834a.673.673,0,0,0,.729-.6v-5.98A.673.673,0,0,0,415.224,727.59Z" transform="translate(-398.449 -706.063)"/>
      <path id="路径_5413" data-name="路径 5413" class="cls-2" d="M414.486,784.573a.61.61,0,1,0,0,1.2h1.458v-1.2Zm0-2.392a.61.61,0,1,0,0,1.2h1.458v-1.2h-1.458Zm-4.377,1.2a.61.61,0,1,0,0-1.2H408.65v1.2h1.459Zm0,2.391a.61.61,0,1,0,0-1.2H408.65v1.2Z" transform="translate(-398.44 -758.86)"/>
    </g>
  </g>
</svg>
