<svg xmlns="http://www.w3.org/2000/svg" width="24" height="24" viewBox="0 0 24 24">
  <defs>
    <style>
      .cls-1 {
        fill: #fff;
        opacity: 0;
      }

      .cls-2 {
        fill: #8d8d8d;
      }
    </style>
  </defs>
  <g id="组_2480" data-name="组 2480" transform="translate(-321 -3750)">
    <rect id="矩形_2077" data-name="矩形 2077" class="cls-1" width="24" height="24" transform="translate(321 3750)"/>
    <path id="搜索" class="cls-2" d="M22.513,20.584l-4.526-4.526A9.946,9.946,0,0,0,10.141,0,9.873,9.873,0,0,0,3.127,2.923a9.988,9.988,0,0,0,0,14.089A9.911,9.911,0,0,0,6.28,19.149a9.908,9.908,0,0,0,7.724,0,9.924,9.924,0,0,0,2.241-1.323l4.518,4.518a1.241,1.241,0,1,0,1.75-1.76ZM10.141,17.895a7.93,7.93,0,1,1,7.886-7.93A7.917,7.917,0,0,1,10.141,17.895Zm0,0" transform="translate(321.775 3751)"/>
  </g>
</svg>
