<svg xmlns="http://www.w3.org/2000/svg" width="42" height="42" viewBox="0 0 42 42">
  <defs>
    <style>
      .cls-1, .cls-3 {
        fill: #fff;
      }

      .cls-1 {
        opacity: 0;
      }

      .cls-2 {
        fill: #246cf6;
      }
    </style>
  </defs>
  <g id="组_3893" data-name="组 3893" transform="translate(-232 -3565)">
    <rect id="矩形_2488" data-name="矩形 2488" class="cls-1" width="42" height="42" transform="translate(232 3565)"/>
    <g id="组_3892" data-name="组 3892" transform="translate(-330 3509)">
      <path id="路径_5433" data-name="路径 5433" class="cls-2" d="M21,0A21,21,0,1,1,0,21,21,21,0,0,1,21,0Z" transform="translate(562 56)"/>
      <path id="搜索" class="cls-3" d="M20.718,18.926l-4.161-4.161A9.145,9.145,0,0,0,9.343,0,9.078,9.078,0,0,0,2.894,2.688a9.183,9.183,0,0,0,0,12.954,9.113,9.113,0,0,0,2.9,1.965,9.11,9.11,0,0,0,7.1,0,9.125,9.125,0,0,0,2.061-1.216l4.154,4.154a1.141,1.141,0,1,0,1.609-1.619ZM9.343,16.453a7.291,7.291,0,1,1,7.251-7.291A7.279,7.279,0,0,1,9.343,16.453Zm0,0" transform="translate(572.291 67.013)"/>
    </g>
  </g>
</svg>
