<svg xmlns="http://www.w3.org/2000/svg" width="48" height="48" viewBox="0 0 48 48">
  <defs>
    <style>
      .cls-1, .cls-3 {
        fill: #fff;
      }

      .cls-1 {
        opacity: 0;
      }

      .cls-2 {
        fill: #2f67f6;
      }
    </style>
  </defs>
  <g id="组_3895" data-name="组 3895" transform="translate(-275 -4054)">
    <rect id="矩形_2082" data-name="矩形 2082" class="cls-1" width="48" height="48" transform="translate(275 4054)"/>
    <circle id="椭圆_70" data-name="椭圆 70" class="cls-2" cx="24" cy="24" r="24" transform="translate(275 4054)"/>
    <path id="纸飞机" class="cls-3" d="M30.521.172,2.51,10.951C.6,11.719.617,12.787,2.162,13.223L9.31,15.495,25.977,5.017c.788-.472,1.509-.207.913.337L13.4,17.456l-.462,7.4a1.867,1.867,0,0,0,1.458-.731l3.465-3.372L25.126,26.1c1.338.737,2.3.348,2.635-1.245L32.544,2.449C33.032.488,31.807-.4,30.521.172Z" transform="translate(281.963 4065.001)"/>
  </g>
</svg>
