<svg xmlns="http://www.w3.org/2000/svg" width="30" height="30" viewBox="0 0 30 30">
  <defs>
    <style>
      .cls-1 {
        fill: #fff;
        opacity: 0;
      }

      .cls-2 {
        fill: #8d8d8d;
      }
    </style>
  </defs>
  <g id="组_2986" data-name="组 2986" transform="translate(18756 8688)">
    <rect id="矩形_2225" data-name="矩形 2225" class="cls-1" width="30" height="30" transform="translate(-18756 -8688)"/>
    <path id="星星" class="cls-2" d="M110.347,116.239l3.081,6.245a.944.944,0,0,0,.714.518l6.891,1a.95.95,0,0,1,.527,1.619l-4.986,4.864a.956.956,0,0,0-.274.839l1.176,6.864a.948.948,0,0,1-1.375,1l-6.164-3.241a.948.948,0,0,0-.884,0l-6.162,3.241a.948.948,0,0,1-1.375-1l1.176-6.864a.948.948,0,0,0-.274-.839l-4.986-4.861A.95.95,0,0,1,97.958,124l6.891-1a.944.944,0,0,0,.714-.518l3.081-6.245A.95.95,0,0,1,110.347,116.239Z" transform="translate(-18850.145 -8800.713)"/>
  </g>
</svg>
