<svg xmlns="http://www.w3.org/2000/svg" xmlns:xlink="http://www.w3.org/1999/xlink" width="78" height="78" viewBox="0 0 78 78">
  <defs>
    <style>
      .cls-1, .cls-2 {
        fill: #fff;
      }

      .cls-1 {
        opacity: 0;
      }

      .cls-3 {
        fill: #636364;
      }

      .cls-4 {
        filter: url(#椭圆_47);
      }
    </style>
    <filter id="椭圆_47" x="0" y="0" width="78" height="78" filterUnits="userSpaceOnUse">
      <feOffset dy="3" input="SourceAlpha"/>
      <feGaussianBlur stdDeviation="3" result="blur"/>
      <feFlood flood-opacity="0.161"/>
      <feComposite operator="in" in2="blur"/>
      <feComposite in="SourceGraphic"/>
    </filter>
  </defs>
  <g id="组_3912" data-name="组 3912" transform="translate(-240 -3890)">
    <rect id="矩形_2494" data-name="矩形 2494" class="cls-1" width="60" height="60" transform="translate(249 3896)"/>
    <g id="组_3905" data-name="组 3905" transform="translate(13082 -16147)">
      <g class="cls-4" transform="matrix(1, 0, 0, 1, -12842, 20037)">
        <circle id="椭圆_47-2" data-name="椭圆 47" class="cls-2" cx="30" cy="30" r="30" transform="translate(9 6)"/>
      </g>
      <path id="鸟" class="cls-3" d="M32.4,99.761a14.325,14.325,0,0,1-3.24,3.45v.826a19.443,19.443,0,0,1-5.135,13.072,17.462,17.462,0,0,1-13.785,5.831A18.4,18.4,0,0,1,0,119.977a9.177,9.177,0,0,0,1.62.081,13.2,13.2,0,0,0,8.31-2.867,6.725,6.725,0,0,1-3.871-1.361,6.479,6.479,0,0,1-2.381-3.24,8.509,8.509,0,0,0,1.247.162,6.882,6.882,0,0,0,1.8-.243A6.272,6.272,0,0,1,2.9,110.241,6.484,6.484,0,0,1,1.312,106v-.162a6.175,6.175,0,0,0,2.964.907,6.479,6.479,0,0,1-2.883-5.588,6.339,6.339,0,0,1,.826-3.24,18.24,18.24,0,0,0,13.736,6.852,9.189,9.189,0,0,1-.162-1.458,6.577,6.577,0,0,1,6.494-6.658h.164a6.256,6.256,0,0,1,4.86,2.057,15.094,15.094,0,0,0,4.2-1.62,6.152,6.152,0,0,1-2.883,3.628,17.249,17.249,0,0,0,3.774-.956Z" transform="translate(-12816.975 19964.693)"/>
    </g>
  </g>
</svg>
