<svg xmlns="http://www.w3.org/2000/svg" width="48" height="48" viewBox="0 0 48 48">
  <defs>
    <style>
      .cls-1 {
        fill: #fff;
        opacity: 0;
      }

      .cls-2, .cls-5 {
        fill: none;
      }

      .cls-2 {
        stroke: #707070;
        stroke-width: 2px;
        opacity: 0.24;
      }

      .cls-3 {
        fill: #636364;
      }

      .cls-4 {
        stroke: none;
      }
    </style>
  </defs>
  <g id="组_3896" data-name="组 3896" transform="translate(-369 -4052)">
    <rect id="矩形_2489" data-name="矩形 2489" class="cls-1" width="48" height="48" transform="translate(369 4052)"/>
    <g id="矩形_798" data-name="矩形 798" class="cls-2" transform="translate(369 4052)">
      <rect class="cls-4" width="48" height="48" rx="24"/>
      <rect class="cls-5" x="1" y="1" width="46" height="46" rx="23"/>
    </g>
    <path id="鸟" class="cls-3" d="M29.281,99.462a12.946,12.946,0,0,1-2.928,3.118v.747a17.573,17.573,0,0,1-4.641,11.815,15.782,15.782,0,0,1-12.459,5.271A16.631,16.631,0,0,1,0,117.733a8.3,8.3,0,0,0,1.464.073,11.933,11.933,0,0,0,7.511-2.591,6.079,6.079,0,0,1-3.5-1.23,5.856,5.856,0,0,1-2.152-2.928,7.689,7.689,0,0,0,1.127.146,6.22,6.22,0,0,0,1.625-.22,5.669,5.669,0,0,1-3.455-2.05A5.861,5.861,0,0,1,1.186,105.1v-.146a5.581,5.581,0,0,0,2.679.82,5.856,5.856,0,0,1-2.606-5.051,5.73,5.73,0,0,1,.747-2.928,16.485,16.485,0,0,0,12.415,6.193,8.305,8.305,0,0,1-.146-1.318,5.944,5.944,0,0,1,5.869-6.017h.148a5.654,5.654,0,0,1,4.392,1.859,13.642,13.642,0,0,0,3.792-1.464,5.56,5.56,0,0,1-2.606,3.279,15.59,15.59,0,0,0,3.411-.864Z" transform="translate(378 3967.353)"/>
  </g>
</svg>
