<svg xmlns="http://www.w3.org/2000/svg" width="30" height="30" viewBox="0 0 30 30">
  <defs>
    <style>
      .cls-1 {
        fill: #fff;
        opacity: 0.01;
      }

      .cls-2 {
        fill: #8d8d8d;
      }
    </style>
  </defs>
  <g id="组_2974" data-name="组 2974" transform="translate(11616 11949)">
    <rect id="矩形_2170" data-name="矩形 2170" class="cls-1" width="30" height="30" transform="translate(-11616 -11949)"/>
    <path id="爱心" class="cls-2" d="M20.963,57.153a5.715,5.715,0,0,0-5.6-5.809,5.478,5.478,0,0,0-4.007,1.779A5.485,5.485,0,0,0,7.35,51.344a5.713,5.713,0,0,0-5.6,5.809,2.538,2.538,0,0,0,.019.282c0,.026,0,.052,0,.079a4.942,4.942,0,0,0,.408,1.852c.009.024.017.047.027.069,1.706,4.092,8.273,8.8,8.552,9.016a.963.963,0,0,0,1.18-.006c.239-.186,5.841-4.218,8.063-8.032a3.954,3.954,0,0,0,.2-.361c.017-.034.033-.069.052-.1l.007-.016a.355.355,0,0,1,.024-.039,6.186,6.186,0,0,0,.324-.735,4.617,4.617,0,0,0,.344-1.646c0-.039,0-.073,0-.1A2.345,2.345,0,0,0,20.963,57.153Z" transform="translate(-11612.751 -11994.344)"/>
  </g>
</svg>
